<svg width="25" height="25" viewBox="0 0 25 25" fill="none" xmlns="http://www.w3.org/2000/svg">
<g clip-path="url(#clip0_2793_20457)">
<path fill-rule="evenodd" clip-rule="evenodd" d="M0 12.5C0 5.59868 5.59868 0 12.5 0C19.4013 0 25 5.59868 25 12.5C25 19.4013 19.4013 25 12.5 25C5.59868 25 0 19.4013 0 12.5ZM7.33458 16.9643H9.74099V9.81091H7.33458V16.9643ZM7.14286 7.53646C7.14286 8.24678 7.767 8.83512 8.53649 8.83512C9.30572 8.83512 9.93013 8.24678 9.93013 7.53646C9.93013 7.19527 9.7833 6.86805 9.52194 6.6268C9.26058 6.38554 8.90611 6.25 8.53649 6.25C8.16688 6.25 7.8124 6.38554 7.55104 6.6268C7.28969 6.86805 7.14286 7.19527 7.14286 7.53646ZM16.3462 16.9643H18.7474H18.75V13.0348C18.75 11.112 18.3023 9.63153 15.8669 9.63153C14.696 9.63153 13.9113 10.2247 13.59 10.7867H13.5563V9.81091H11.2484V16.9643H13.6522V13.4223C13.6522 12.4895 13.8439 11.5879 15.095 11.5879C16.328 11.5879 16.3462 12.6522 16.3462 13.4821V16.9643Z" fill="#0066FF"/>
</g>
<defs>
<clipPath id="clip0_2793_20457">
<rect width="25" height="25" fill="white"/>
</clipPath>
</defs>
</svg>
